<svg xmlns="http://www.w3.org/2000/svg" width="1200" height="675" viewBox="0 0 1200 675">
  <rect width="1200" height="675" fill="#F3F4F6"/>
  <text x="64" y="90" font-family="Arial" font-size="40" font-weight="700" fill="#111827">Product narrative</text>
  <rect x="70" y="145" width="330" height="370" rx="26" fill="#FFFFFF" stroke="#D1D5DB"/>
  <rect x="112" y="190" width="246" height="56" rx="12" fill="#111827"/>
  <rect x="112" y="270" width="246" height="42" rx="8" fill="#E5E7EB"/>
  <rect x="112" y="330" width="180" height="42" rx="8" fill="#D1FAE5"/>
  <rect x="112" y="390" width="220" height="42" rx="8" fill="#DBEAFE"/>
  <path d="M450 330 H590" stroke="#6B7280" stroke-width="5"/>
  <path d="M580 310 L610 330 L580 350" fill="none" stroke="#6B7280" stroke-width="5"/>
  <rect x="640" y="145" width="430" height="110" fill="#FFFFFF" stroke="#D1D5DB"/>
  <rect x="640" y="285" width="430" height="110" fill="#FFFFFF" stroke="#D1D5DB"/>
  <rect x="640" y="425" width="430" height="110" fill="#FFFFFF" stroke="#D1D5DB"/>
  <text x="670" y="207" font-family="Arial" font-size="24" font-weight="700" fill="#111827">User pain</text>
  <text x="670" y="347" font-family="Arial" font-size="24" font-weight="700" fill="#111827">Workflow</text>
  <text x="670" y="487" font-family="Arial" font-size="24" font-weight="700" fill="#111827">Outcome</text>
  <text x="64" y="610" font-family="Arial" font-size="18" fill="#4B5563">Grammar: product surface, flow arrows, benefit proof, roadmap-ready modules.</text>
</svg>
